# xmcd CD database file
# Generated: Sam Aug 16 13:08:37 2003 by KSCD
# 
# Track frame offsets:
#       182
#       9467
#       22337
#       32767
#       44750
#       57095
#       68205
#       81305
#       92640
#       103720
#       113472
#       124997
#       136447
#       147227
#       159195
#       172335
#       183325
#       198097
#
# Disc length: 2851 seconds
#
# Revision: 2
# Processed by: cddbd v1.4PL0 Copyright (c) Steve Scherf et al.
# Submitted via: Kscd 1.3.3
#
DISCID=fc0b2112
DTITLE=Frankie Laine - The Country Store Collection
DYEAR=1900
DGENRE=
TTITLE0=Rawhide
TTITLE1=Cool Water
TTITLE2=The Hanging Tree
TTITLE3=Wanted Man
TTITLE4=Your Cheating Heard
TTITLE5=The 310 To Yuma
TTITLE6=The Cry Of The Wild Goose
TTITLE7=North To Alaska
TTITLE8=Call Of The Wind
TTITLE9=Gunfight At The OK Coral
TTITLE10=Mule Train
TTITLE11=Along The Navajo Trail
TTITLE12=16 Tons
TTITLE13=City Boy
TTITLE14=Bowie Knife
TTITLE15=High Noon
TTITLE16=On The Trail
TTITLE17=Tumbling Tumbleweeds
EXTD=
EXTT0=
EXTT1=
EXTT2=
EXTT3=
EXTT4=
EXTT5=
EXTT6=
EXTT7=
EXTT8=
EXTT9=
EXTT10=
EXTT11=
EXTT12=
EXTT13=
EXTT14=
EXTT15=
EXTT16=
EXTT17=
PLAYORDER=
